ffmpeg started on 2016-12-06 at 07:35:04
Report written to "Output/x264/results/ffmpeg/crowd_run_2160p50fast7000k.log"
Command line:
Tools/ffmpeg/ffmpeg -benchmark -y -i Input/y4m/crowd_run_2160p50.y4m -c:v libx264 -preset fast -b:v 7000k -an Output/x264/encoded/crowd_run_2160p50fast7000k.mkv
ffmpeg version N-82227-gdb23fde Copyright (c) 2000-2016 the FFmpeg developers
  built with gcc 5.4.0 (Ubuntu 5.4.0-6ubuntu1~16.04.2) 20160609
  configuration: --prefix=/home/jaroslav/ffmpeg_build --pkg-config-flags=--static --extra-cflags=-I/home/jaroslav/ffmpeg_build/include --extra-ldflags=-L/home/jaroslav/ffmpeg_build/lib --bindir=/home/jaroslav/bin --enable-gpl --enable-libass --enable-libfdk-aac --enable-libfreetype --enable-libmp3lame --enable-libopus --enable-libtheora --enable-libvorbis --enable-libvpx --enable-libx264 --enable-libx265 --enable-nvenc --enable-libmfx --enable-libxvid --enable-libgsm --enable-libopencore-amrnb --enable-version3 --enable-nonfree
  libavutil      55. 35.100 / 55. 35.100
  libavcodec     57. 66.101 / 57. 66.101
  libavformat    57. 57.100 / 57. 57.100
  libavdevice    57.  2.100 / 57.  2.100
  libavfilter     6. 66.100 /  6. 66.100
  libswscale      4.  3.100 /  4.  3.100
  libswresample   2.  4.100 /  2.  4.100
  libpostproc    54.  2.100 / 54.  2.100
Input #0, yuv4mpegpipe, from 'Input/y4m/crowd_run_2160p50.y4m':
  Duration: 00:00:10.00, start: 0.000000, bitrate: 4976642 kb/s
    Stream #0:0: Video: rawvideo (I420 / 0x30323449), yuv420p(progressive), 3840x2160, SAR 1:1 DAR 16:9, 50 fps, 50 tbr, 50 tbn, 50 tbc
[libx264 @ 0x36121c0] using SAR=1/1
[libx264 @ 0x36121c0] using cpu capabilities: MMX2 SSE2Fast SSSE3 SSE4.2 AVX FMA3 AVX2 LZCNT BMI2
[libx264 @ 0x36121c0] profile High, level 5.2
[libx264 @ 0x36121c0] 264 - core 148 - H.264/MPEG-4 AVC codec - Copyleft 2003-2016 - http://www.videolan.org/x264.html - options: cabac=1 ref=2 deblock=1:0:0 analyse=0x3:0x113 me=hex subme=6 psy=1 psy_rd=1.00:0.00 mixed_ref=1 me_range=16 chroma_me=1 trellis=1 8x8dct=1 cqm=0 deadzone=21,11 fast_pskip=1 chroma_qp_offset=-2 threads=6 lookahead_threads=1 sliced_threads=0 nr=0 decimate=1 interlaced=0 bluray_compat=0 constrained_intra=0 bframes=3 b_pyramid=2 b_adapt=1 b_bias=0 direct=1 weightb=1 open_gop=0 weightp=1 keyint=250 keyint_min=25 scenecut=40 intra_refresh=0 rc_lookahead=30 rc=abr mbtree=1 bitrate=7000 ratetol=1.0 qcomp=0.60 qpmin=0 qpmax=69 qpstep=4 ip_ratio=1.40 aq=1:1.00
Output #0, matroska, to 'Output/x264/encoded/crowd_run_2160p50fast7000k.mkv':
  Metadata:
    encoder         : Lavf57.57.100
    Stream #0:0: Video: h264 (libx264) (H264 / 0x34363248), yuv420p, 3840x2160 [SAR 1:1 DAR 16:9], q=-1--1, 7000 kb/s, 50 fps, 1k tbn, 50 tbc
    Metadata:
      encoder         : Lavc57.66.101 libx264
    Side data:
      cpb: bitrate max/min/avg: 0/0/7000000 buffer size: 0 vbv_delay: -1
Stream mapping:
  Stream #0:0 -> #0:0 (rawvideo (native) -> h264 (libx264))
Press [q] to stop, [?] for help
frame=   16 fps=0.0 q=0.0 size=       0kB time=00:00:00.00 bitrate=N/A speed=   0x    frame=   29 fps= 28 q=0.0 size=       0kB time=00:00:00.00 bitrate=N/A speed=   0x    frame=   37 fps= 13 q=0.0 size=       0kB time=00:00:00.00 bitrate=N/A speed=   0x    frame=   43 fps= 12 q=37.0 size=       1kB time=00:00:00.00 bitrate=5872.0kbits/s speed=0.000288x    frame=   47 fps= 12 q=40.0 size=       1kB time=00:00:00.08 bitrate=  72.5kbits/s speed=0.02x    frame=   56 fps= 12 q=53.0 size=       1kB time=00:00:00.26 bitrate=  22.5kbits/s speed=0.0563x    frame=   63 fps= 12 q=53.0 size=       1kB time=00:00:00.40 bitrate=  14.6kbits/s speed=0.0779x    frame=   71 fps= 13 q=53.0 size=       1kB time=00:00:00.56 bitrate=  10.5kbits/s speed=0.0993x    frame=   79 fps= 13 q=53.0 size=       1kB time=00:00:00.72 bitrate=   8.1kbits/s speed=0.117x    frame=   87 fps= 13 q=53.0 size=       1kB time=00:00:00.88 bitrate=   6.7kbits/s speed=0.132x    frame=   95 fps= 13 q=52.0 size=       1kB time=00:00:01.04 bitrate=   5.6kbits/s speed=0.144x    frame=  103 fps= 13 q=52.0 size=       1kB time=00:00:01.20 bitrate=   4.9kbits/s speed=0.155x    frame=  111 fps= 13 q=52.0 size=       1kB time=00:00:01.36 bitrate=   4.3kbits/s speed=0.164x    frame=  120 fps= 13 q=52.0 size=       1kB time=00:00:01.54 bitrate=   3.8kbits/s speed=0.173x    frame=  129 fps= 14 q=51.0 size=       1kB time=00:00:01.72 bitrate=   3.4kbits/s speed=0.183x    frame=  136 fps= 14 q=51.0 size=       1kB time=00:00:01.86 bitrate=   3.2kbits/s speed=0.187x    frame=  144 fps= 14 q=51.0 size=       1kB time=00:00:02.02 bitrate=   2.9kbits/s speed=0.193x    frame=  153 fps= 14 q=51.0 size=       1kB time=00:00:02.20 bitrate=   2.7kbits/s speed= 0.2x    frame=  160 fps= 14 q=51.0 size=       1kB time=00:00:02.34 bitrate=   2.5kbits/s speed=0.203x    frame=  168 fps= 14 q=51.0 size=       1kB time=00:00:02.50 bitrate=   2.3kbits/s speed=0.207x    frame=  176 fps= 14 q=51.0 size=       1kB time=00:00:02.66 bitrate=   2.2kbits/s speed=0.21x    frame=  186 fps= 14 q=51.0 size=       1kB time=00:00:02.86 bitrate=   2.1kbits/s speed=0.217x    frame=  194 fps= 14 q=51.0 size=       1kB time=00:00:03.02 bitrate=   1.9kbits/s speed=0.22x    frame=  201 fps= 14 q=51.0 size=       1kB time=00:00:03.16 bitrate=   1.9kbits/s speed=0.221x    frame=  210 fps= 14 q=51.0 size=       1kB time=00:00:03.34 bitrate=   1.8kbits/s speed=0.226x    frame=  218 fps= 14 q=51.0 size=       1kB time=00:00:03.50 bitrate=   1.7kbits/s speed=0.229x    frame=  225 fps= 14 q=51.0 size=       1kB time=00:00:03.64 bitrate=   1.6kbits/s speed=0.23x    frame=  234 fps= 14 q=51.0 size=       1kB time=00:00:03.82 bitrate=   1.5kbits/s speed=0.233x    frame=  241 fps= 14 q=50.0 size=       1kB time=00:00:03.96 bitrate=   1.5kbits/s speed=0.235x    frame=  249 fps= 14 q=50.0 size=       1kB time=00:00:04.12 bitrate=   1.4kbits/s speed=0.237x    frame=  256 fps= 14 q=50.0 size=       1kB time=00:00:04.26 bitrate=   1.4kbits/s speed=0.238x    frame=  265 fps= 14 q=50.0 size=       1kB time=00:00:04.44 bitrate=   1.3kbits/s speed=0.241x    frame=  273 fps= 14 q=50.0 size=       1kB time=00:00:04.60 bitrate=   1.3kbits/s speed=0.242x    frame=  280 fps= 14 q=50.0 size=       1kB time=00:00:04.74 bitrate=   1.2kbits/s speed=0.243x    frame=  287 fps= 14 q=51.0 size=       1kB time=00:00:04.88 bitrate=   1.2kbits/s speed=0.236x    frame=  296 fps= 14 q=51.0 size=    4462kB time=00:00:05.06 bitrate=7222.8kbits/s speed=0.238x    frame=  304 fps= 14 q=51.0 size=    4462kB time=00:00:05.22 bitrate=7001.5kbits/s speed=0.24x    frame=  310 fps= 14 q=51.0 size=    4462kB time=00:00:05.34 bitrate=6844.2kbits/s speed=0.24x    frame=  318 fps= 14 q=51.0 size=    4462kB time=00:00:05.50 bitrate=6645.1kbits/s speed=0.241x    frame=  326 fps= 14 q=51.0 size=    4462kB time=00:00:05.66 bitrate=6457.3kbits/s speed=0.241x    frame=  332 fps= 14 q=51.0 size=    4462kB time=00:00:05.78 bitrate=6323.2kbits/s speed=0.241x    frame=  339 fps= 14 q=51.0 size=    4462kB time=00:00:05.92 bitrate=6173.7kbits/s speed=0.241x    frame=  346 fps= 14 q=51.0 size=    4462kB time=00:00:06.06 bitrate=6031.1kbits/s speed=0.242x    frame=  354 fps= 14 q=51.0 size=    4462kB time=00:00:06.22 bitrate=5876.0kbits/s speed=0.243x    frame=  362 fps= 14 q=51.0 size=    4462kB time=00:00:06.38 bitrate=5728.7kbits/s speed=0.245x    frame=  369 fps= 14 q=51.0 size=    4462kB time=00:00:06.52 bitrate=5605.7kbits/s speed=0.245x    frame=  377 fps= 14 q=51.0 size=    4462kB time=00:00:06.68 bitrate=5471.4kbits/s speed=0.246x    frame=  386 fps= 14 q=51.0 size=    4462kB time=00:00:06.86 bitrate=5327.9kbits/s speed=0.247x    frame=  394 fps= 14 q=51.0 size=    4462kB time=00:00:07.02 bitrate=5206.5kbits/s speed=0.247x    frame=  402 fps= 14 q=51.0 size=    4462kB time=00:00:07.18 bitrate=5090.5kbits/s speed=0.249x    frame=  410 fps= 14 q=51.0 size=    4462kB time=00:00:07.34 bitrate=4979.5kbits/s speed=0.249x    frame=  418 fps= 14 q=51.0 size=    4462kB time=00:00:07.50 bitrate=4873.3kbits/s speed=0.25x    frame=  426 fps= 14 q=51.0 size=    4462kB time=00:00:07.66 bitrate=4771.5kbits/s speed=0.251x    frame=  434 fps= 14 q=51.0 size=    4462kB time=00:00:07.82 bitrate=4673.9kbits/s speed=0.251x    frame=  442 fps= 14 q=51.0 size=    4462kB time=00:00:07.98 bitrate=4580.2kbits/s speed=0.252x    frame=  449 fps= 14 q=51.0 size=    4462kB time=00:00:08.12 bitrate=4501.2kbits/s speed=0.252x    frame=  458 fps= 14 q=51.0 size=    4462kB time=00:00:08.30 bitrate=4403.6kbits/s speed=0.253x    frame=  466 fps= 14 q=51.0 size=    4462kB time=00:00:08.46 bitrate=4320.4kbits/s speed=0.253x    frame=  474 fps= 14 q=51.0 size=    4462kB time=00:00:08.62 bitrate=4240.2kbits/s speed=0.254x    frame=  482 fps= 14 q=51.0 size=    4462kB time=00:00:08.78 bitrate=4162.9kbits/s speed=0.255x    frame=  490 fps= 14 q=51.0 size=    4462kB time=00:00:08.94 bitrate=4088.4kbits/s speed=0.255x    frame=  499 fps= 14 q=51.0 size=    4462kB time=00:00:09.12 bitrate=4007.7kbits/s speed=0.255x    frame=  500 fps= 13 q=-1.0 Lsize=    8846kB time=00:00:09.94 bitrate=7289.4kbits/s speed=0.262x    
video:8841kB audio:0kB subtitle:0kB other streams:0kB global headers:0kB muxing overhead: 0.050324%
bench: utime=129.512s
bench: maxrss=1596596kB
[libx264 @ 0x36121c0] frame I:2     Avg QP:39.23  size:227170
[libx264 @ 0x36121c0] frame P:126   Avg QP:49.20  size: 29047
[libx264 @ 0x36121c0] frame B:372   Avg QP:50.46  size: 13275
[libx264 @ 0x36121c0] consecutive B-frames:  0.8%  0.0%  0.0% 99.2%
[libx264 @ 0x36121c0] mb I  I16..4: 23.3% 67.8%  8.9%
[libx264 @ 0x36121c0] mb P  I16..4:  3.8%  4.1%  0.0%  P16..4: 24.6%  2.4%  1.3%  0.0%  0.0%    skip:63.8%
[libx264 @ 0x36121c0] mb B  I16..4:  1.4%  1.2%  0.0%  B16..8: 13.3%  0.7%  0.0%  direct: 6.4%  skip:77.0%  L0:44.8% L1:54.5% BI: 0.7%
[libx264 @ 0x36121c0] final ratefactor: 42.71
[libx264 @ 0x36121c0] 8x8 transform intra:51.0% inter:95.0%
[libx264 @ 0x36121c0] coded y,uvDC,uvAC intra: 12.0% 47.4% 7.7% inter: 2.3% 6.6% 0.0%
[libx264 @ 0x36121c0] i16 v,h,dc,p: 50% 24% 12% 14%
[libx264 @ 0x36121c0] i8 v,h,dc,ddl,ddr,vr,hd,vl,hu: 13%  8% 56%  4%  4%  4%  4%  4%  3%
[libx264 @ 0x36121c0] i4 v,h,dc,ddl,ddr,vr,hd,vl,hu: 23% 17% 12%  9%  9%  9%  8%  7%  6%
[libx264 @ 0x36121c0] i8c dc,h,v,p: 89%  4%  7%  1%
[libx264 @ 0x36121c0] Weighted P-Frames: Y:1.6% UV:0.0%
[libx264 @ 0x36121c0] ref P L0: 65.1% 34.9%
[libx264 @ 0x36121c0] ref B L0: 85.0% 15.0%
[libx264 @ 0x36121c0] ref B L1: 96.2%  3.8%
[libx264 @ 0x36121c0] kb/s:7242.18
